<?xml version="1.0" encoding="UTF-8" standalone="no"?>
<svg version="1.1" width="24" height="24" viewBox="0 0 24 24" id="svg51"
    xmlns="http://www.w3.org/2000/svg">
  <path id="path269"
      style="fill:#e53935;fill-opacity:1;stroke:none;stroke-width:0.3;stroke-linecap:butt;stroke-linejoin:miter;stroke-miterlimit:4;stroke-dasharray:none;stroke-opacity:1"
      d="M 12 2 A 10 10 0 0 0 2 12 A 10 10 0 0 0 12 22 A 10 10 0 0 0 22 12 A 10 10 0 0 0 12 2 z M 12 4 A 4 4 0 0 1 16 8 A 4 4 0 0 1 12 12 A 4 4 0 0 0 8 16 A 4 4 0 0 0 12 20 A 8 8 0 0 1 4 12 A 8 8 0 0 1 12 4 z M 10.6875 6.0175781 L 10.6875 9.796875 L 13.849609 7.90625 L 10.6875 6.0175781 z M 13.423828 14.552734 L 13.423828 17.955078 L 10.578125 16.253906 L 13.423828 14.552734 z " />
</svg>
