<svg xmlns="http://www.w3.org/2000/svg" viewBox="0 0 24 24" width="24" height="24">
    <path
            fill="#FF000000"
            d="m10.84,11.22 l-0.688,-2.568c0.728,-0.18 2.839,-1.051 3.39,0.506 0.27,1.682 -1.978,1.877 -2.702,2.062zM11.129,12.533 L11.884,15.362c0.868,-0.228 3.496,-0.46 3.241,-2.351 -0.433,-1.666 -3.125,-0.706 -3.996,-0.478zM24,12c0,6.627 -5.373,12 -12,12S0,18.627 0,12 5.373,0 12,0s12,5.373 12,12zM17.659,12.661c-0.183,-1.151 -1.441,-2.095 -2.485,-2.202 0.643,-0.57 0.969,-1.401 0.57,-2.488 -0.603,-1.368 -1.989,-1.66 -3.685,-1.377l-0.546,-2.114 -1.285,0.332 0.536,2.108c-0.338,0.085 -0.685,0.158 -1.029,0.256L9.198,5.08l-1.285,0.332 0.545,2.114c-0.277,0.079 -2.595,0.673 -2.595,0.673l0.353,1.377s0.944,-0.265 0.935,-0.244c0.524,-0.137 0.771,0.125 0.886,0.372l1.498,5.793c0.018,0.168 -0.012,0.454 -0.372,0.551 0.021,0.012 -0.935,0.241 -0.935,0.241l0.14,1.605s2.296,-0.588 2.598,-0.664l0.551,2.138 1.285,-0.332 -0.551,-2.153c0.353,-0.082 0.697,-0.168 1.032,-0.256l0.548,2.141 1.285,-0.332 -0.551,-2.135c1.982,-0.482 3.38,-1.73 3.094,-3.64z"/>
</svg>