<svg xmlns="http://www.w3.org/2000/svg" viewBox="0 0 2000 2000" width="2000" height="2000">
    <path
            d="M975.5,81.5c43.6,-22.7 96.8,30 73.6,73.6 -13.4,35.5 -64.4,44.9 -90.5,17.9C931,146.9 940,95.6 975.5,81.5M506.6,132c26.5,-10.9 60,13.4 57.3,42.2 2.8,31.3 -35.5,54.4 -62.5,39.5 -35.8,-13.9 -31.7,-71.9 5.2,-81.7M1466.9,214.6c-41.4,-5 -47.9,-70.1 -8.1,-83.2 30.9,-15.1 59.3,13.2 63.8,42.5 -6.5,25 -27.4,47.9 -55.7,40.7M613.3,331.5c44.3,-28 107.4,13.7 100.6,65.1 -2.3,51.9 -71.3,82 -110.2,46.9 -37.6,-27.6 -31.9,-90.8 9.5,-112M1289.1,361.3c19.8,-50.9 99.8,-52.4 122.3,-2.9 22.2,38.6 -5.1,86.3 -44.7,99.4 -52.4,9.8 -102.3,-46.9 -77.6,-96.5M919,454.9c-0.4,-43.8 39.4,-76.3 81,-79.3 27.6,5.5 57.6,17.3 69.5,45.1 22,38.4 2.5,91.3 -37.4,108.9 -18.2,10.2 -39.8,6.4 -59.6,5.2 -30.3,-14.9 -55.9,-44.1 -53.5,-79.8M221.8,518.7c40.4,-24.9 95,20.5 79.7,64.4 -8.4,38 -59.5,53.5 -88.7,29.2 -31.2,-22.7 -26.2,-77.4 9,-93.6M1719,518.6c34.3,-26.6 90.9,3.9 86.8,47.2 2.3,39.5 -46.7,69.3 -80.7,49 -37.5,-16.9 -41.3,-74.6 -6.1,-96.2M1115.1,597.2c56.6,-20.3 123.9,4 156.1,54.5 42.6,61.7 19.9,155.7 -46.1,191.1 -68.4,41.9 -168.4,6.4 -193.7,-70.1 -28.7,-68.4 13.1,-154.1 83.7,-175.5M782.9,604c62.8,-29.6 147.2,-4.8 177.5,59.4 35.7,62.5 8.1,149.5 -55.7,181.7 -63.8,36.3 -153.9,8.8 -184.8,-58.3 -34.7,-64.9 -3.9,-153 63,-182.9M450.3,717.7c4.8,-40.4 42.9,-66.7 81.4,-69.5 41.5,5 74.6,37.2 79.1,79.2 -2.7,41.5 -34.8,82.1 -78.8,81.9 -48.4,4.2 -90.9,-44 -81.6,-91.6M1432.7,657c49.7,-28.9 118.8,13.2 116.6,70.3 3.4,60.5 -73,103.2 -122.5,67.7 -51.4,-29.6 -47.4,-112.8 6,-138M647.7,870.3c58.2,-16 124.6,11.4 153.2,64.9 31.2,53.8 18.5,128.5 -30,168 -62.2,57.9 -177,34.6 -210.1,-44.3 -38.1,-72.4 8.2,-169.4 87,-188.5M1277.8,870c56.5,-16.2 122.9,5.6 153.3,57.1 40.2,58.9 21,146.8 -38.8,184.7 -62.7,44.1 -159.7,20.9 -194.2,-48 -41.8,-71.3 0.3,-172.1 79.7,-193.8M273.7,937.2c50.2,-19 105.9,36.4 85.6,86.2 -12.4,45.4 -76.4,62.1 -109.4,28.7 -38.7,-31.4 -24.3,-101.3 23.8,-114.9M1635.2,1009.5c-1.5,-41.6 29,-78.5 71.7,-80.8 34.4,5.4 67.8,33.2 65.1,70.7 3.2,49.5 -56.5,83.1 -98.6,59.8 -19.8,-10 -29.9,-30.3 -38.2,-49.7M26.7,961.6c30.2,-13.2 67.6,13 60.7,46.6 -1.6,38 -57.7,52.6 -78.3,20.9C-9.1,1007 1.8,973 26.7,961.6zM1932.1,960.9c21.3,-15.1 55.4,-4.3 63.8,20.6 14.3,27.1 -11.9,64.3 -42.5,59.8 -42.9,3.9 -56.8,-61.5 -21.4,-80.4M811.8,1143.3c79.5,-20.7 165,45.6 165.5,127.5 5.2,82.7 -79,156.1 -160.4,137 -62.9,-10.1 -112.3,-70.7 -110.3,-134.3 -0.2,-60.8 45.7,-117.3 105.2,-130.2M1126.8,1143.1c80.7,-22.6 168.7,44.9 167.5,128.7 4.3,81.2 -77.3,152.1 -157,136 -75,-9.7 -130.3,-92.1 -109.4,-164.9 10.6,-48.5 51.1,-87.9 98.9,-99.8M519.6,1193.5c55.8,-9.5 108.2,52.8 85.6,105.8 -16.5,56.5 -98.8,71.8 -135.1,25.7 -42.7,-44.3 -10.8,-125.4 49.6,-131.5M1443.1,1196c49.8,-20.9 110.9,22.2 107.1,76.3 2,59.5 -73.5,100.5 -122.2,65.8 -55.2,-31.2 -45.1,-122.9 15.1,-142.1M1701.3,1454.9c-19.5,-36.3 15.9,-84.5 56.3,-77.8 20.1,-0.3 34.1,15.5 47,28.8 2.6,21.5 7.1,47.2 -10.8,63.8 -24.3,30.7 -79.3,22 -92.5,-14.8M221.6,1387.2c37.7,-25.1 92,12.3 83.5,56.4 -4.5,39 -53.6,61.3 -86,39.2 -34.7,-20.1 -33.5,-77.3 2.5,-95.6M966.8,1468.9c49.4,-21.8 112.3,21.2 107.6,75.6 3.7,60.1 -74.2,101.7 -122.4,65.6 -53.6,-31 -44.7,-122.2 14.8,-141.2M621.6,1549.4c42.1,-22.1 98.5,16.1 94.7,63.2 1.3,38.7 -36.4,71.6 -74.6,65.9 -31.6,-0.7 -52.2,-29 -62.3,-55.9 0.5,-29.4 12.6,-62 42.2,-73.1M1320.8,1550.1c43.3,-26.7 104.7,11.7 100.6,62 1.1,52.6 -68.4,86.3 -108.6,51.8 -39,-27.1 -34.2,-92.2 8,-113.8M1442.3,1850.7c-19.2,-29.1 3.4,-64.2 34.7,-70.8 25.1,5.1 51.7,24 46.4,53.1 -3.7,39.4 -61.3,51.5 -81.1,17.7M477.2,1825.4c7.7,-23.1 26.2,-46 53.4,-40 39.6,2.8 51.3,62.5 16.7,80.9 -31.2,21 -67.3,-7.8 -70.1,-40.9M942.8,1851.8c7.6,-34.1 51.8,-50.7 80.9,-32.6 19.2,8.3 24.9,29.8 29.8,48.1 -2.6,9.5 -5,19.1 -7.3,28.6 -11.9,14.1 -27.2,28.3 -47.1,27.8 -36.9,4.3 -70.1,-37.4 -56.3,-71.8"
            fill="#3cc8c8"/>
</svg>