<svg xmlns="http://www.w3.org/2000/svg" width="24" height="24">
    <path
            fill="#FF000000"
            d="M18.942,5.556a16.299,16.299 0,0 0,-4.126 -1.297c-0.178,0.321 -0.385,0.754 -0.529,1.097a15.175,15.175 0,0 0,-4.573 0,11.583 11.583,0 0,0 -0.535,-1.097 16.274,16.274 0,0 0,-4.129 1.3c-2.611,3.946 -3.319,7.794 -2.965,11.587a16.494,16.494 0,0 0,5.061 2.593,12.65 12.65,0 0,0 1.084,-1.785 10.689,10.689 0,0 1,-1.707 -0.831c0.143,-0.106 0.283,-0.217 0.418,-0.331 3.291,1.539 6.866,1.539 10.118,0 0.137,0.114 0.277,0.225 0.418,0.331 -0.541,0.326 -1.114,0.606 -1.71,0.832a12.52,12.52 0,0 0,1.084 1.785,16.46 16.46,0 0,0 5.064,-2.595c0.415,-4.396 -0.709,-8.209 -2.973,-11.589zM8.678,14.813c-0.988,0 -1.798,-0.922 -1.798,-2.045s0.793,-2.047 1.798,-2.047 1.815,0.922 1.798,2.047c0.001,1.123 -0.793,2.045 -1.798,2.045zM15.322,14.813c-0.988,0 -1.798,-0.922 -1.798,-2.045s0.793,-2.047 1.798,-2.047 1.815,0.922 1.798,2.047c0,1.123 -0.793,2.045 -1.798,2.045z"/>
</svg>