<svg xmlns="http://www.w3.org/2000/svg" viewBox="0 0 24.0 24.0" width="48" height="48">
    <path
            fill="#FF000000"
            d="M12,0l-6,6 1.41,1.41L12,2.83l4.59,4.58L18,6z"
    />
    <path
            fill="#FF000000"
            d="M12,9c1.1,0 2,-0.9 2,-2s-0.9,-2 -2,-2 -2,0.9 -2,2 0.9,2 2,2zM12,10c-1.1,0 -2,0.9 -2,2s0.9,2 2,2 2,-0.9 2,-2 -0.9,-2 -2,-2zM12,15c-1.1,0 -2,0.9 -2,2s0.9,2 2,2 2,-0.9 2,-2 -0.9,-2 -2,-2z"
    />
    <path
            fill="#FF000000"
            d="M16.59,16.59L12,21.17 7.41,16.59 6,18l6,6 6,-6z"
    />
</svg>