<svg xmlns="http://www.w3.org/2000/svg" viewBox="0 0 15 15" width="24" height="24">
	<path
            d="M4.539,2.407C4.821,1.008 6.061,0 7.5,0C8.939,0 10.179,1.008 10.461,2.407L10.798,4.079C10.974,4.954 11.322,5.786 11.821,6.528L12.401,7.391C12.763,7.93 13,8.538 13.098,9.173C13.675,9.222 14.18,9.589 14.398,10.128L14.89,11.347C15.138,11.962 14.958,12.665 14.446,13.089L12.561,14.646C12.013,15.099 11.222,15.119 10.651,14.694L9.892,14.13C9.882,14.123 9.872,14.115 9.862,14.107C9.49,14.208 9.098,14.261 8.694,14.261H6.306C5.902,14.261 5.51,14.208 5.138,14.107C5.128,14.115 5.118,14.123 5.108,14.13L4.349,14.694C3.778,15.119 2.987,15.099 2.439,14.646L0.554,13.089C0.042,12.665 -0.138,11.962 0.11,11.347L0.602,10.128C0.82,9.589 1.325,9.222 1.902,9.173C2,8.538 2.237,7.93 2.599,7.391L3.179,6.528C3.678,5.786 4.026,4.954 4.202,4.079L4.539,2.407ZM10.844,9.476C10.634,9.633 10.464,9.844 10.356,10.094L9.588,11.871C9.2,12.098 8.752,12.224 8.285,12.224H6.715C6.248,12.224 5.8,12.098 5.412,11.871L4.644,10.094C4.536,9.844 4.366,9.633 4.155,9.476C4.181,9.154 4.269,8.835 4.419,8.538L5.677,6.043L5.684,6.05C6.687,7.045 8.313,7.045 9.316,6.05L9.323,6.043L10.581,8.538C10.731,8.835 10.819,9.154 10.844,9.476ZM9.041,4.269V3.056H8.014V3.857C8.232,3.901 8.445,3.974 8.648,4.075L9.041,4.269ZM6.986,3.857V3.056H5.959V4.269L6.352,4.075C6.555,3.974 6.768,3.901 6.986,3.857ZM2.033,10.186C1.823,10.186 1.634,10.313 1.556,10.507L1.064,11.726C0.981,11.931 1.041,12.165 1.212,12.306L3.096,13.863C3.279,14.014 3.543,14.021 3.733,13.88L4.492,13.315C4.681,13.174 4.749,12.923 4.656,12.707L3.7,10.495C3.619,10.308 3.433,10.186 3.228,10.186H2.033ZM13.444,10.507C13.366,10.313 13.177,10.186 12.967,10.186H11.772C11.567,10.186 11.381,10.308 11.3,10.495L10.344,12.707C10.251,12.923 10.319,13.174 10.508,13.315L11.267,13.88C11.457,14.021 11.721,14.014 11.904,13.863L13.788,12.306C13.959,12.165 14.019,11.931 13.936,11.726L13.444,10.507ZM6.811,4.986C7.245,4.771 7.755,4.771 8.189,4.986L8.687,5.233L8.59,5.33C7.988,5.926 7.012,5.926 6.411,5.33L6.313,5.233L6.811,4.986Z"
            fill="#000000"
            />
</svg>