<svg xmlns="http://www.w3.org/2000/svg" viewBox="0 0 32 32" width="24" height="24">
	<path
            d="M24,13a4,4 0,0 0,4 -4L28,8a4,4 0,0 0,-4 -4L23,4a4,4 0,0 0,-4 4v3L13,11L13,8A4,4 0,0 0,9 4L8,4A4,4 0,0 0,4 8L4,9a4,4 0,0 0,4 4h3v6L8,19a4,4 0,0 0,-4 4v1a4,4 0,0 0,4 4L9,28a4,4 0,0 0,4 -4L13,21h6v3a4,4 0,0 0,4 4h1a4,4 0,0 0,4 -4L28,23a4,4 0,0 0,-4 -4L21,19L21,13ZM21,8a2,2 0,0 1,2 -2h1a2,2 0,0 1,2 2L26,9a2,2 0,0 1,-2 2L21,11ZM8,11A2,2 0,0 1,6 9L6,8A2,2 0,0 1,8 6L9,6a2,2 0,0 1,2 2v3L8,11ZM11,24a2,2 0,0 1,-2 2L8,26a2,2 0,0 1,-2 -2L6,23a2,2 0,0 1,2 -2h3ZM19,19L13,19L13,13h6ZM21,21h3a2,2 0,0 1,2 2v1a2,2 0,0 1,-2 2L23,26a2,2 0,0 1,-2 -2Z"
            fill="#000000"/>
</svg>