<svg xmlns="http://www.w3.org/2000/svg" width="24" height="24">
    <path
            fill="@color/build_primary"
            d="M12,2A10,10 0,0 1,22 12,10 10,0 0,1 12,22 10,10 0,0 1,2 12,10 10,0 0,1 12,2"/>
    <path
            d="m12,4a8,8 0,0 0,-8 8,8 8,0 0,0 8,8 4,4 0,0 1,-4 -4,4 4,0 0,1 4,-4 4,4 0,0 0,4 -4,4 4,0 0,0 -4,-4"
            fill="#FFFFFF"/>
    <path
            d="M10.6871,9.7965V6.0173l3.1623,1.8896z"
            fill="@color/build_primary"
            strokeColor="#00000000"/>
    <path
            d="m13.4245,14.5529v3.4013L10.5784,16.2535Z"
            fill="#ffffff"
            strokeColor="@color/white"/>
</svg>