<svg xmlns="http://www.w3.org/2000/svg" viewBox="0 0 300 300" width="300" height="300">
    <path
            fill="#FF000000"
            d="M14.49,208.9c0.62,0 1.14,-0.51 1.23,-1.23l3.37,-26.67l-3.36,-27.28c-0.1,-0.72 -0.62,-1.23 -1.24,-1.23c-0.63,0 -1.18,0.52 -1.26,1.23l-2.94,27.28l2.94,26.66C13.32,208.38 13.86,208.9 14.49,208.9z"/>
    <path
            fill="#FF000000"
            d="M3.4,198.75c0.61,0 1.1,-0.47 1.19,-1.18l2.61,-16.57l-2.61,-16.88c-0.09,-0.69 -0.58,-1.18 -1.19,-1.18c-0.63,0 -1.13,0.5 -1.22,1.19L0,181l2.18,16.57C2.27,198.27 2.76,198.75 3.4,198.75z"/>
    <path
            fill="#FF000000"
            d="M27.76,148.64c-0.08,-0.87 -0.71,-1.5 -1.5,-1.5c-0.78,0 -1.42,0.63 -1.49,1.5l-2.81,32.35l2.81,31.17c0.07,0.86 0.71,1.49 1.49,1.49c0.79,0 1.42,-0.63 1.5,-1.49l3.18,-31.17L27.76,148.64z"/>
    <path
            fill="#FF000000"
            d="M38.15,214.92c0.92,0 1.67,-0.76 1.76,-1.75l3.01,-32.16l-3.01,-33.26c-0.09,-1 -0.84,-1.75 -1.76,-1.75c-0.94,0 -1.69,0.75 -1.76,1.75l-2.66,33.25l2.66,32.16C36.46,214.16 37.22,214.92 38.15,214.92z"/>
    <path
            fill="#FF000000"
            d="M50.13,215.44c1.07,0 1.94,-0.86 2.03,-2.01l-0.01,0.01l2.83,-32.43l-2.83,-30.86c-0.08,-1.13 -0.94,-2.01 -2.02,-2.01c-1.09,0 -1.95,0.87 -2.01,2.01l-2.5,30.85l2.5,32.42C48.18,214.58 49.04,215.44 50.13,215.44z"/>
    <path
            fill="#FF000000"
            d="M67.13,181.02l-2.65,-50.17c-0.07,-1.27 -1.07,-2.29 -2.28,-2.29c-1.21,0 -2.19,1.01 -2.27,2.29l-2.35,50.17l2.35,32.42c0.07,1.28 1.06,2.28 2.27,2.28c1.22,0 2.21,-1 2.28,-2.28v0.01L67.13,181.02z"/>
    <path
            fill="#FF000000"
            d="M74.39,215.77c1.34,0 2.45,-1.11 2.51,-2.53v0.02l2.48,-32.23l-2.48,-61.66c-0.06,-1.42 -1.17,-2.53 -2.51,-2.53c-1.37,0 -2.47,1.11 -2.55,2.53l-2.18,61.66l2.19,32.22C71.92,214.65 73.02,215.77 74.39,215.77z"/>
    <path
            fill="#FF000000"
            d="M86.64,111.43c-1.51,0 -2.72,1.24 -2.79,2.8l-2.03,66.8l2.03,31.88c0.06,1.55 1.28,2.78 2.79,2.78c1.5,0 2.73,-1.22 2.78,-2.79v0.02l2.31,-31.9l-2.31,-66.8C89.38,112.66 88.15,111.43 86.64,111.43z"/>
    <path
            fill="#FF000000"
            d="M99.01,215.77c1.66,0 2.97,-1.34 3.04,-3.06v0.02l2.13,-31.69l-2.13,-69.04c-0.06,-1.71 -1.38,-3.06 -3.04,-3.06c-1.67,0 -3.01,1.34 -3.03,3.06l-1.92,69.04l1.92,31.69C96,214.43 97.34,215.77 99.01,215.77z"/>
    <path
            fill="#FF000000"
            d="M111.48,215.73c1.79,0 3.24,-1.46 3.29,-3.32v0.03l1.96,-31.4l-1.96,-67.29c-0.05,-1.85 -1.5,-3.31 -3.29,-3.31c-1.8,0 -3.25,1.46 -3.3,3.31l-1.73,67.29l1.74,31.39C108.23,214.27 109.68,215.73 111.48,215.73z"/>
    <path
            fill="#FF000000"
            d="M129.36,181.04l-1.78,-64.84c-0.04,-2 -1.61,-3.57 -3.55,-3.57c-1.95,0 -3.51,1.57 -3.56,3.58l-1.59,64.82l1.59,31.2c0.04,1.98 1.61,3.56 3.56,3.56c1.94,0 3.51,-1.57 3.55,-3.59v0.03L129.36,181.04z"/>
    <path
            fill="#FF000000"
            d="M136.68,215.85c2.06,0 3.77,-1.72 3.81,-3.83v0.02l1.61,-30.98l-1.61,-77.15c-0.03,-2.12 -1.74,-3.83 -3.81,-3.83c-2.06,0 -3.77,1.72 -3.81,3.84l-1.43,77.11l1.43,31.02C132.91,214.14 134.62,215.85 136.68,215.85z"/>
    <path
            fill="#FF000000"
            d="M149.29,92.81c-2.23,0 -4.04,1.85 -4.07,4.1l-1.67,84.15l1.68,30.53c0.03,2.22 1.84,4.07 4.06,4.07c2.19,0 4.04,-1.84 4.05,-4.11v0.04l1.82,-30.53l-1.82,-84.15C153.33,94.65 151.49,92.81 149.29,92.81z"/>
    <path
            fill="#FF000000"
            d="M160.82,215.88c0.09,0.01 101.62,0.06 102.28,0.06c20.39,0 36.9,-16.72 36.9,-37.36c0,-20.62 -16.52,-37.35 -36.9,-37.35c-5.06,0 -9.88,1.03 -14.27,2.91c-2.92,-33.67 -30.82,-60.08 -64.84,-60.08c-8.32,0 -16.43,1.66 -23.59,4.47c-2.79,1.09 -3.53,2.21 -3.56,4.39v118.54C156.86,213.75 158.61,215.65 160.82,215.88z"/>
</svg>